<svg version="1.1" xmlns="http://www.w3.org/2000/svg" viewBox="0 0 13731 13731">
    <path d="m6623 0h484c143 0 261 117 261 261v918h-1005v-918c0-144 117-261 260-261zm745 12551v919c0 143-118 261-261 261h-484c-143 0-260-118-260-261v-919h1005z"/>
    <path d="m0 7107v-484c0-143 117-260 261-260h918v1005h-918c-144 0-261-118-261-261zm12551-744h919c143 0 261 117 261 260v484c0 143-118 261-261 261h-919v-1005z"/>
    <path d="m7997 0h484c143 0 261 117 261 261v918h-1005v-918c0-144 117-261 260-261zm745 12551v919c0 143-118 261-261 261h-484c-143 0-260-118-260-261v-919h1005z"/>
    <path d="m0 5733v-484c0-143 117-260 261-260h918v1005h-918c-144 0-261-117-261-261zm12551-744h919c143 0 261 117 261 260v484c0 144-118 261-261 261h-919v-1005z"/>
    <path d="m9371 0h484c143 0 261 117 261 261v918h-1005v-918c0-144 117-261 260-261zm745 12551v919c0 143-118 261-261 261h-484c-143 0-260-118-260-261v-919h1005z"/>
    <path d="m0 4359v-484c0-143 117-260 261-260h918v1005h-918c-144 0-261-117-261-261zm12551-744h919c143 0 261 117 261 260v484c0 144-118 261-261 261h-919v-1005z"/>
    <path d="m5249 0h484c144 0 261 117 261 261v918h-1005v-918c0-144 117-261 260-261zm745 12551v919c0 143-117 261-261 261h-484c-143 0-260-118-260-261v-919h1005z"/>
    <path d="m0 8481v-484c0-143 117-260 261-260h918v1005h-918c-144 0-261-118-261-261zm12551-744h919c143 0 261 117 261 260v484c0 143-118 261-261 261h-919v-1005z"/>
    <path d="m3875 0h484c144 0 261 117 261 261v918h-1005v-918c0-144 117-261 260-261zm745 12551v919c0 143-117 261-261 261h-484c-143 0-260-118-260-261v-919h1005z"/>
    <path d="m0 9855v-484c0-143 117-260 261-260h918v1005h-918c-144 0-261-118-261-261zm12551-744h919c143 0 261 117 261 260v484c0 143-118 261-261 261h-919v-1005z"/>
    <path d="m3148 1644h7434c828 0 1505 677 1505 1504v7434c0 828-677 1505-1505 1505h-7434c-827 0-1504-677-1504-1505v-7434c0-827 677-1504 1504-1504zm329 864h6777c533 0 969 436 969 969v6777c0 533-436 969-969 969h-6777c-533 0-969-436-969-969v-6777c0-533 436-969 969-969z"/>
</svg>